<svg height='100px' width='100px'  fill="#000000" xmlns:dc="http://purl.org/dc/elements/1.1/" xmlns:cc="http://creativecommons.org/ns#" xmlns:rdf="http://www.w3.org/1999/02/22-rdf-syntax-ns#" xmlns:svg="http://www.w3.org/2000/svg" xmlns="http://www.w3.org/2000/svg" xmlns:sodipodi="http://sodipodi.sourceforge.net/DTD/sodipodi-0.dtd" xmlns:inkscape="http://www.inkscape.org/namespaces/inkscape" version="1.1" x="0px" y="0px" viewBox="0 0 100 100"><g transform="translate(0,-952.36218)"><path style="font-size:medium;font-style:normal;font-variant:normal;font-weight:normal;font-stretch:normal;text-indent:0;text-align:start;text-decoration:none;line-height:normal;letter-spacing:normal;word-spacing:normal;text-transform:none;direction:ltr;block-progression:tb;writing-mode:lr-tb;text-anchor:start;baseline-shift:baseline;opacity:1;color:#000000;fill:#000000;fill-opacity:1;stroke:none;stroke-width:6;marker:none;visibility:visible;display:inline;overflow:visible;enable-background:accumulate;font-family:Sans;-inkscape-font-specification:Sans" d="M 50 9 C 45.318894 8.99954 40.776423 10.97335 37.5 14.375 C 34.223577 17.77665 32.374898 22.42177 32.375 27.1875 C 32.374983 27.996185 32.458107 28.797497 32.5625 29.59375 L 17.84375 56.03125 C 17.13587 56.334836 16.448475 56.693701 15.78125 57.09375 C 11.749293 59.51135 8.7827483 63.54795 7.59375 68.15625 C 6.4047517 72.76465 7.0384912 77.7293 9.34375 81.875 C 11.649008 86.0211 15.516416 89.1187 20.03125 90.375 C 24.546084 91.6312 29.436138 90.94855 33.46875 88.53125 C 34.138446 88.129694 34.768791 87.672147 35.375 87.1875 L 64.625 87.1875 C 65.230469 87.670837 65.862842 88.130524 66.53125 88.53125 C 70.563862 90.94855 75.453916 91.6312 79.96875 90.375 L 80 90.34375 C 84.498007 89.08055 88.357678 86.0091 90.65625 81.875 C 92.961509 77.7293 93.595248 72.76465 92.40625 68.15625 L 92.40625 68.125 C 91.212462 63.5286 88.242391 59.5376 84.21875 57.125 C 83.568817 56.735413 82.878102 56.395531 82.1875 56.09375 L 67.4375 29.59375 C 67.541914 28.799017 67.625017 27.996115 67.625 27.1875 C 67.625102 22.42218 65.775917 17.77658 62.5 14.375 C 59.224083 10.97342 54.680702 9.00019 50 9 z M 50 15 C 52.971013 15.00012 56.053005 16.31488 58.1875 18.53125 C 60.321995 20.74762 61.625068 24.00808 61.625 27.1875 C 61.625068 30.36692 60.321995 33.59613 58.1875 35.8125 C 56.053005 38.02887 52.971013 39.34363 50 39.34375 C 47.028741 39.34404 43.94731 38.0289 41.8125 35.8125 C 39.67769 33.5961 38.374932 30.36718 38.375 27.1875 C 38.374932 24.00782 39.67769 20.74765 41.8125 18.53125 C 43.94731 16.31485 47.028741 14.99971 50 15 z M 50 19.96875 A 6.9375016 7.2031693 0 0 0 43.0625 27.1875 A 6.9375016 7.2031693 0 0 0 50 34.375 A 6.9375016 7.2031693 0 0 0 56.9375 27.1875 A 6.9375016 7.2031693 0 0 0 50 19.96875 z M 35.25 37.09375 C 35.901505 38.126734 36.648003 39.115439 37.5 40 C 40.776423 43.40165 45.318894 45.34421 50 45.34375 C 54.680702 45.34356 59.224083 43.37033 62.5 39.96875 C 63.351378 39.084713 64.09877 38.122976 64.75 37.09375 L 74.53125 54.65625 C 68.551547 54.94985 63.042005 58.48055 60.09375 63.78125 C 57.78778 67.92725 57.185971 72.8911 58.375 77.5 L 58.375 77.53125 C 58.706635 78.808207 59.19452 80.024954 59.78125 81.1875 L 40.21875 81.1875 C 40.810493 80.014252 41.292373 78.789192 41.625 77.5 C 42.813998 72.8916 42.211509 67.92695 39.90625 63.78125 C 36.957986 58.477814 31.409646 54.974674 25.46875 54.65625 L 35.25 37.09375 z M 24.34375 60.65625 C 28.35261 60.55825 32.602351 62.9929 34.65625 66.6875 C 36.176637 69.4217 36.60339 72.9346 35.8125 76 C 35.02161 79.0653 32.968825 81.8197 30.375 83.375 C 27.780778 84.93 24.501249 85.39405 21.625 84.59375 C 18.748751 83.79345 16.114135 81.672 14.59375 78.9375 C 13.073363 76.2033 12.61536 72.72165 13.40625 69.65625 C 14.19714 66.59095 16.249926 63.8053 18.84375 62.25 C 20.507595 61.2524 22.438048 60.70305 24.34375 60.65625 z M 74.84375 60.65625 C 77.014166 60.54955 79.259558 61.1131 81.15625 62.25 C 83.750074 63.8053 85.80286 66.59095 86.59375 69.65625 C 87.38464 72.72165 86.926636 76.2033 85.40625 78.9375 C 83.885865 81.672 81.251249 83.79345 78.375 84.59375 C 75.498751 85.39405 72.219222 84.96135 69.625 83.40625 C 67.0308 81.85105 64.978407 79.0657 64.1875 76 C 63.396593 72.9343 63.822908 69.4218 65.34375 66.6875 C 67.266893 63.2298 71.09339 60.84045 74.84375 60.65625 z M 24.4375 65.625 A 6.9375012 7.2031697 0 0 0 21.15625 66.59375 A 6.9375012 7.2031697 0 0 0 18.59375 76.4375 A 6.9375012 7.2031697 0 0 0 28.09375 79.0625 A 6.9375012 7.2031697 0 0 0 30.625 69.21875 A 6.9375012 7.2031697 0 0 0 24.4375 65.625 z M 75.0625 65.625 A 6.9375012 7.2031697 0 0 0 69.375 69.21875 A 6.9375012 7.2031697 0 0 0 71.90625 79.0625 A 6.9375012 7.2031697 0 0 0 81.40625 76.4375 A 6.9375012 7.2031697 0 0 0 78.84375 66.59375 A 6.9375012 7.2031697 0 0 0 75.0625 65.625 z " transform="translate(0,952.36218)"></path></g></svg>
